<svg width="107" height="44" viewBox="0 0 107 44" fill="none" xmlns="http://www.w3.org/2000/svg">
<g clip-path="url(#clip0_23_826)">
<path d="M84.1601 0L82.9602 1.46944L102.118 16.649H89.2633C87.622 16.649 84.8084 16.649 82.3396 16.649C79.7053 16.649 77.5675 18.7977 77.5675 21.4455V25.2577H76.2296C73.9815 25.2577 72.1609 23.4279 72.1609 21.1682V0.499055H70.4507V21.1544C70.4507 24.3705 73.0436 26.9628 76.2296 26.9628H79.2777V21.5841C79.2777 19.8097 80.7121 18.368 82.4775 18.368H107L84.1601 0Z" fill="white"/>
<path d="M59.4168 0.485352H57.7065V18.2988H59.4168V0.485352Z" fill="white"/>
<path d="M47.8728 18.368C51.7484 18.368 54.8103 15.4846 54.7137 11.1317V0.499055H53.0035V11.1317C52.9897 14.4865 50.0244 16.7045 47.8728 16.649H43.4041L33.1289 8.24827L32.0117 9.77316L51.2795 25.2439H31.5014C29.2533 25.2439 27.4327 23.414 27.4327 21.1544V18.368H33.5289L9.98556 0L8.8546 1.53875L28.5637 16.649H6.41338V8.91367H4.70315V17.661C4.70315 20.2533 4.39972 22.0139 3.76527 23.2199C3.03429 24.5923 1.83436 25.2439 0 25.2439V26.9628C2.46881 26.9628 4.248 25.9786 5.26863 24.0378C5.98582 22.6931 6.34442 20.8771 6.39959 18.368H25.6949V21.1544C25.6949 24.3566 28.2878 26.9628 31.4738 26.9628H56.0929L45.5005 18.368H47.859H47.8728Z" fill="white"/>
<path d="M15.7646 21.4043C14.2612 21.4043 13.0337 22.6381 13.0337 24.1491C13.0337 25.6601 14.2612 26.8939 15.7646 26.8939C17.2679 26.8939 18.4954 25.6601 18.4954 24.1491C18.4954 22.6381 17.2679 21.4043 15.7646 21.4043ZM15.7646 25.1749C15.1991 25.1749 14.7439 24.7175 14.7439 24.1491C14.7439 23.5807 15.1991 23.1233 15.7646 23.1233C16.33 23.1233 16.7852 23.5807 16.7852 24.1491C16.7852 24.7175 16.33 25.1749 15.7646 25.1749Z" fill="white"/>
<path d="M85.7048 21.3896C84.1463 21.3896 82.8774 22.665 82.8774 24.2315C82.8774 25.798 84.1463 27.0733 85.7048 27.0733C87.2634 27.0733 88.5322 25.798 88.5322 24.2315C88.5322 22.665 87.2634 21.3896 85.7048 21.3896ZM85.7048 25.285C85.1256 25.285 84.6428 24.8137 84.6428 24.2315C84.6428 23.6493 85.1118 23.1779 85.7048 23.1779C86.2979 23.1779 86.7668 23.6493 86.7668 24.2315C86.7668 24.8137 86.2979 25.285 85.7048 25.285Z" fill="white"/>
<path d="M15.7644 21.3896C14.2059 21.3896 12.937 22.665 12.937 24.2315C12.937 25.798 14.2059 27.0733 15.7644 27.0733C17.3229 27.0733 18.5918 25.798 18.5918 24.2315C18.5918 22.665 17.3229 21.3896 15.7644 21.3896ZM15.7644 25.285C15.1851 25.285 14.7024 24.8137 14.7024 24.2315C14.7024 23.6493 15.1714 23.1779 15.7644 23.1779C16.3575 23.1779 16.8264 23.6493 16.8264 24.2315C16.8264 24.8137 16.3575 25.285 15.7644 25.285Z" fill="white"/>
<path d="M102.697 21.3896C101.139 21.3896 99.8696 22.665 99.8696 24.2315C99.8696 25.798 101.139 27.0733 102.697 27.0733C104.256 27.0733 105.524 25.798 105.524 24.2315C105.524 22.665 104.256 21.3896 102.697 21.3896ZM102.697 25.285C102.118 25.285 101.635 24.8137 101.635 24.2315C101.635 23.6493 102.104 23.1779 102.697 23.1779C103.29 23.1779 103.759 23.6493 103.759 24.2315C103.759 24.8137 103.29 25.285 102.697 25.285Z" fill="white"/>
<path d="M65.7475 17.661C65.7475 20.2533 65.4441 22.0138 64.8096 23.2337C64.0786 24.6061 62.2167 25.2438 59.4307 25.2438V26.9628C63.0166 26.9628 65.2924 25.9785 66.3268 24.0378C67.044 22.6931 67.4026 20.8771 67.4577 18.368V0.499023H65.7475V17.661Z" fill="white"/>
<path d="M3.25496 35.6543V41.5598C3.25496 42.2252 3.25496 42.9738 2.75844 43.4867C2.4826 43.7917 2.05504 43.9996 1.46197 43.9996C0.868909 43.9996 0.37239 43.8194 0 43.4035L0.49652 42.6965C0.758572 42.9876 1.11717 43.154 1.4206 43.154C1.72403 43.154 1.88953 43.0708 2.02746 42.9183C2.33088 42.6133 2.33088 42.1004 2.33088 41.5875V35.6682H3.24117L3.25496 35.6543Z" fill="white"/>
<path d="M9.21302 35.6543V43.8471H8.30273V35.6543H9.21302Z" fill="white"/>
<path d="M15.5161 35.6543C15.9712 35.6543 16.7849 35.6959 17.3918 36.1672C17.6538 36.3613 18.1228 36.8603 18.1228 37.8585C18.1228 38.8566 18.04 38.9813 17.3228 39.4665C18.4676 39.7438 18.8814 40.7419 18.8814 41.5321C18.8814 42.3222 18.4952 42.9599 18.0538 43.3065C17.4056 43.8194 16.6608 43.8471 16.0953 43.8471H14.0679V35.6543H15.5298H15.5161ZM14.9644 39.2586H15.654C16.1367 39.2586 17.2539 39.1615 17.2539 37.9C17.2539 36.6385 15.9298 36.5276 15.6816 36.5276H14.9782V39.2724L14.9644 39.2586ZM14.9644 42.9876H15.9988C16.5229 42.9876 17.0332 42.946 17.4332 42.6411C17.7504 42.4054 17.9711 42.0034 17.9711 41.5043C17.9711 41.0053 17.5849 40.4646 17.2677 40.2983C16.9642 40.1319 16.5367 40.0487 15.8884 40.0487H14.9644V42.9738V42.9876Z" fill="white"/>
<path d="M27.5569 41.5464H24.0813L23.102 43.8614H22.0952L25.8467 35.2666L29.5016 43.8614H28.4948L27.5431 41.5464H27.5569ZM27.1983 40.6869L25.8329 37.4014L24.4399 40.6869H27.1983Z" fill="white"/>
<path d="M34.5221 35.6543V42.9876H36.7702V43.8471H33.6118V35.6543H34.5221Z" fill="white"/>
<path d="M57.8449 35.6543V42.9876H60.093V43.8471H56.9346V35.6543H57.8449Z" fill="white"/>
<path d="M65.4445 38.9813H69.6235V35.6543H70.5338V43.8471H69.6235V39.8408H65.4445V43.8471H64.5342V35.6543H65.4445V38.9813Z" fill="white"/>
<path d="M79.7742 41.5464H76.2986L75.3193 43.8614H74.3125L78.064 35.2666L81.7189 43.8614H80.7121L79.7604 41.5464H79.7742ZM79.4156 40.6869L78.0502 37.4014L76.6572 40.6869H79.4156Z" fill="white"/>
<path d="M88.1323 35.6543V41.5598C88.1323 42.2252 88.1323 42.9738 87.6358 43.4867C87.3599 43.7917 86.9462 43.9996 86.3393 43.9996C85.7324 43.9996 85.2497 43.8194 84.8911 43.4035L85.3876 42.6965C85.6635 42.9876 86.0083 43.154 86.3117 43.154C86.6151 43.154 86.7806 43.0708 86.9186 42.9183C87.222 42.6133 87.222 42.1004 87.222 41.5875V35.6682H88.1323V35.6543Z" fill="white"/>
<path d="M96.9593 41.5464H93.4836L92.5044 43.8614H91.4976L95.249 35.2666L98.904 43.8614H97.8971L96.9455 41.5464H96.9593ZM96.6007 40.6869L95.2352 37.4014L93.8422 40.6869H96.6007Z" fill="white"/>
<path d="M103.58 35.6543C104.131 35.6543 104.945 35.6959 105.566 36.1118C106.049 36.4306 106.462 37.0544 106.462 37.9278C106.462 39.1754 105.649 40.1042 104.407 40.1874L107 43.8471H105.897L103.414 40.2567H103.18V43.8471H102.27V35.6543H103.58ZM103.18 39.4527H103.759C104.89 39.4527 105.552 38.912 105.552 37.9555C105.552 36.999 105.414 37.0406 104.904 36.7494C104.531 36.5415 104.118 36.5138 103.732 36.5138H103.18V39.4527Z" fill="white"/>
<path d="M50.5486 41.5464H47.073L46.0937 43.8614H45.0869L48.8384 35.2666L52.4933 43.8614H51.4865L50.5348 41.5464H50.5486ZM50.19 40.6869L48.8246 37.4014L47.4316 40.6869H50.19Z" fill="white"/>
</g>
<defs>
<clipPath id="clip0_23_826">
<rect width="107" height="44" fill="white"/>
</clipPath>
</defs>
</svg>
