<svg width="18" height="18" viewBox="0 0 18 18" fill="none" xmlns="http://www.w3.org/2000/svg">
<path d="M8.05382 0.746933C8.0519 1.13292 7.83682 1.49202 7.83298 1.89336C7.81954 2.4925 7.7965 3.13005 7.38171 3.60629C7.23768 3.7964 7.09942 3.97115 6.99381 4.19583C6.75377 4.78152 6.68655 5.07149 6.18151 5.50165C5.8397 5.80314 5.63423 6.23713 5.27321 6.51941C5.10998 6.66536 4.87954 6.70376 4.70671 6.83243C4.48396 7.03406 4.27657 7.24145 4.01156 7.397C3.78112 7.56791 3.495 7.61784 3.22423 7.69081C3.03988 7.74266 2.89586 7.81563 2.71727 7.87516C2.34857 7.94429 2.07205 8.19009 1.71871 8.29379H1.71487C1.40954 8.38404 1.09269 8.41477 0.783518 8.32643C0.48971 8.27074 0.224704 8.16129 0.0902819 7.89628C-0.161279 7.48342 0.226625 6.98605 0.222784 6.52517C0.251589 6.06046 0.234304 5.55349 0.45514 5.1291C0.626048 4.80457 0.881451 4.5434 1.03892 4.20159C1.45947 3.10508 1.50747 3.34321 2.18342 2.54819C2.36009 2.27167 2.58093 2.0201 2.84209 1.82423C3.02836 1.70133 3.27224 1.65525 3.42971 1.48626C3.66207 1.23085 3.95587 1.02346 4.26888 0.871753C4.64142 0.752693 5.02164 0.656676 5.38266 0.504971C5.69183 0.443521 5.92803 0.26109 6.21032 0.13819C6.65967 -0.0423204 7.14935 -0.0288789 7.59678 0.155472C7.83682 0.251488 8.01925 0.497292 8.05574 0.746933H8.05382Z" fill="#CF632D"/>
<path d="M8.05381 17.3249C7.95587 17.8741 7.53917 17.9759 7.05717 17.9241H7.05333C6.75568 17.9068 6.44843 17.9567 6.15654 17.8991C5.93379 17.83 5.77248 17.6936 5.53436 17.6264C5.31353 17.5707 5.10805 17.4709 4.89682 17.3883C4.4225 17.2731 3.97507 17.0715 3.60253 16.7546C3.50267 16.6663 3.4201 16.5626 3.30872 16.4858C3.14165 16.3667 2.9285 16.3225 2.77487 16.1862C2.49451 15.9577 2.2948 15.6504 2.08356 15.3605C1.87041 15.1089 1.58428 14.9169 1.40569 14.6384C1.22518 14.3408 1.12725 13.9567 0.958261 13.6571C0.745106 13.2692 0.418653 12.9543 0.328399 12.5107C0.201658 12.0633 0.266945 11.5832 0.17477 11.13C0.128683 10.8381 -0.00189936 10.6057 2.09562e-05 10.3196C0.030746 9.94131 0.368722 9.66862 0.733582 9.61869C1.10228 9.50924 1.47866 9.55341 1.83392 9.67823C2.13349 9.80881 2.37161 9.99892 2.69422 10.07C3.10709 10.2774 3.59293 10.3004 3.98275 10.55C4.26888 10.7114 4.50124 10.9284 4.74319 11.1434C4.88338 11.2433 5.06004 11.2894 5.19639 11.3912C5.5286 11.637 5.74943 11.998 6.01252 12.3091C6.33897 12.6259 6.67695 12.9274 6.81713 13.3787C6.93235 13.6975 7.07445 13.9951 7.27224 14.262C7.45851 14.5174 7.65055 14.7652 7.71968 15.0782C7.85218 15.5314 7.79073 16.0172 7.88098 16.4762C7.92131 16.7508 8.07685 17.0638 8.05381 17.3249Z" fill="#CF632D"/>
<path d="M17.2444 10.8881C17.0332 11.5084 17.2022 12.2036 16.9314 12.8065C16.7682 13.1637 16.4782 13.4498 16.3015 13.8051C16.1268 14.1565 16.0442 14.5751 15.7542 14.8517C15.5929 15.0091 15.4201 15.1705 15.2646 15.3356C15.0937 15.5564 14.9496 15.8061 14.7403 15.9962C14.5617 16.2209 14.2718 16.2958 14.0356 16.4398C13.8243 16.6165 13.6515 16.8162 13.3999 16.9487C13.133 17.1445 12.8085 17.2175 12.4878 17.3135C12.2132 17.4268 11.9309 17.5209 11.6486 17.6189C11.4259 17.7187 11.2569 17.8589 11.013 17.9146H11.0092C10.5444 18.0567 9.78015 18.0817 9.63805 17.5056C9.53627 17.1388 9.71486 16.8162 9.78591 16.4628C9.89153 15.9424 9.80511 15.3817 10.0048 14.8805C10.145 14.5348 10.4119 14.2641 10.602 13.9414C10.8037 13.5939 10.8805 13.1599 11.132 12.8545C11.3183 12.6587 11.5238 12.4762 11.7139 12.2842C11.9175 12.0192 12.1076 11.7388 12.361 11.518C12.626 11.2933 12.9967 11.228 13.2137 10.9323C13.4383 10.7518 13.6957 10.5694 13.9684 10.4618C14.3275 10.3658 14.6865 10.2525 15.0322 10.1162C15.4624 10.0048 15.7734 9.68986 16.2266 9.64761C17.1273 9.49015 17.5805 10.0298 17.2444 10.8862V10.8881Z" fill="#CF632D"/>
<path d="M17.0006 8.28226H16.9967C16.3976 8.53767 15.7869 8.25538 15.2608 7.96925C15.0073 7.89436 14.7615 7.80219 14.5138 7.71001C14.2526 7.62744 13.9684 7.59287 13.7341 7.44692C13.4288 7.27794 13.1926 7.03406 12.9353 6.8113C12.7509 6.69032 12.5166 6.64999 12.3592 6.49061C12.1326 6.29089 11.9444 6.05085 11.7773 5.79929C11.6122 5.59766 11.4067 5.42483 11.2204 5.24432C10.8786 4.93899 10.821 4.43586 10.5906 4.04604C10.3851 3.69462 10.0721 3.41618 9.95879 3.01483C9.82629 2.60772 9.86278 2.16797 9.81861 1.74934C9.7898 1.37104 9.57281 1.02154 9.61313 0.639395C9.6285 0.147793 10.1374 -0.0288755 10.5599 0.00376996C10.967 0.0306544 11.3107 0.215006 11.6602 0.407038C12.1345 0.576026 12.6107 0.733487 13.0927 0.875591C13.4538 1.03498 13.7418 1.29998 14.0203 1.56883C14.2084 1.70517 14.46 1.74358 14.6271 1.91257C14.8652 2.1142 15.0553 2.36768 15.23 2.62693C15.5085 2.96106 15.8945 3.20494 16.0539 3.62549C16.1883 3.92314 16.292 4.25536 16.4879 4.5146C16.797 4.91402 17.0659 5.34226 17.0947 5.86458C17.1273 6.18528 17.1004 6.52325 17.1772 6.83819C17.304 7.30866 17.5671 8.0115 16.9987 8.28226H17.0006Z" fill="#CF632D"/>
<path d="M14.0683 8.98709C14.0606 8.72016 13.7533 8.64911 13.6516 8.62415C13.5171 8.59342 13.3654 8.57038 13.2195 8.54926C13.1926 8.54541 13.1657 8.54157 13.1388 8.53773C13.0179 8.35146 12.8335 8.19016 12.6031 8.0807C12.4744 8.01349 12.3419 7.95012 12.2152 7.88867C12.0596 7.81377 11.9079 7.74272 11.7639 7.66207C11.7274 7.62558 11.6909 7.58717 11.6544 7.54877C11.4778 7.36633 11.2953 7.17815 11.0937 7.00724L11.0841 6.99956L11.0457 6.97267C11.0111 6.94771 10.9746 6.92274 10.9401 6.89778C10.7308 6.61549 10.483 6.37353 10.2449 6.13925C10.2161 6.11045 10.1854 6.08164 10.1566 6.05092C10.1067 5.95298 10.0586 5.84929 10.0087 5.73983C9.87046 5.43834 9.72644 5.12725 9.49408 4.86416C9.43263 4.79119 9.36542 4.72974 9.29436 4.67981C9.29052 4.65677 9.28669 4.6318 9.28477 4.60876C9.26364 4.46089 9.2406 4.30727 9.20988 4.17285C9.18491 4.07107 9.11194 3.75806 8.83734 3.75806H8.82581C8.55889 3.76574 8.48784 4.07299 8.46287 4.17477C8.43215 4.30919 8.40911 4.4609 8.38798 4.60684C8.38414 4.62988 8.38222 4.651 8.37838 4.67405C8.19019 4.79119 8.02504 4.97746 7.91367 5.20598C7.83109 5.35576 7.75812 5.51131 7.68706 5.65917C7.61601 5.80896 7.54688 5.95298 7.47199 6.08933C7.44319 6.11621 7.4163 6.14309 7.3875 6.1719C7.20507 6.34857 7.01687 6.531 6.84597 6.73263L6.83829 6.74223L6.8114 6.78064C6.78644 6.8152 6.76148 6.84977 6.73651 6.88434C6.66546 6.94003 6.59249 6.9938 6.51952 7.04756L6.49455 7.06677L6.48303 7.07829C6.26988 7.278 6.06056 7.48348 5.85125 7.69087C5.76291 7.73504 5.67266 7.77728 5.57857 7.81953C5.27708 7.95779 4.96599 8.10182 4.7029 8.33418C4.62993 8.39563 4.56848 8.46284 4.51855 8.53389C4.00199 8.60302 3.5968 8.66064 3.5968 9.00053C3.5968 9.06966 3.61984 9.13879 3.66209 9.1964L3.68706 9.23097L3.7389 9.26938L3.76195 9.2809C3.94822 9.37691 4.15753 9.40572 4.34188 9.42876C4.40333 9.43644 4.46094 9.44412 4.51663 9.45372C4.63377 9.64 4.81812 9.80323 5.04664 9.91268C5.19642 9.99526 5.35197 10.0682 5.49983 10.1393C5.63425 10.2027 5.76483 10.266 5.88965 10.3313C5.96071 10.4004 6.03368 10.4715 6.10281 10.5406C6.22571 10.6635 6.35245 10.7922 6.48879 10.9112L6.49647 10.9189L6.50607 10.9247C6.5368 10.9477 6.56944 10.9727 6.60017 10.9957C6.64241 11.0284 6.68466 11.0591 6.72691 11.0918C6.78068 11.1628 6.83445 11.2339 6.8863 11.3049L6.9055 11.3299L6.91702 11.3414C7.10521 11.5411 7.29724 11.737 7.49119 11.9329C7.55841 12.0519 7.61793 12.1787 7.6813 12.3131C7.80612 12.58 7.93671 12.8565 8.1345 13.0985C8.20747 13.1907 8.29004 13.2656 8.37646 13.3213C8.44559 13.8301 8.50512 14.2276 8.84117 14.2276C8.91031 14.2276 8.97943 14.2046 9.03704 14.1623L9.07161 14.1374L9.11002 14.0855L9.12154 14.0625C9.21755 13.8762 9.24636 13.6669 9.26941 13.4826C9.27901 13.4173 9.28669 13.3539 9.29821 13.2944C9.48256 13.1734 9.64194 12.989 9.7514 12.7624C9.81861 12.6338 9.88198 12.5013 9.94343 12.3745C10.0106 12.2343 10.0759 12.098 10.1451 11.9674C10.1508 11.9617 10.1566 11.9559 10.1623 11.9501C10.2353 11.8733 10.3121 11.7965 10.387 11.7235C10.5099 11.6006 10.6386 11.4739 10.7576 11.3376L10.7653 11.3299L10.7711 11.3203C10.7941 11.2895 10.8191 11.2569 10.8421 11.2262C10.8748 11.182 10.9074 11.1398 10.9382 11.0975C11.2185 10.8882 11.4586 10.6424 11.6928 10.4043C11.7101 10.387 11.7255 10.3697 11.7428 10.3544L11.7543 10.3486L11.7658 10.3428C11.8887 10.2737 12.0193 10.2122 12.1576 10.147C12.4245 10.0221 12.701 9.89156 12.943 9.69376C13.0351 9.62079 13.11 9.53822 13.1657 9.44989C13.1849 9.44797 13.2022 9.44412 13.2214 9.4422C13.3693 9.42108 13.5229 9.39803 13.6573 9.36731C13.7591 9.34234 14.0721 9.26937 14.0721 8.99477V8.98324L14.0683 8.98709Z" fill="#CF632D"/>
</svg>
