<svg width="83" height="100" viewBox="0 0 83 100" fill="none" xmlns="http://www.w3.org/2000/svg">
<path d="M82.5751 53.5845C82.3169 51.6665 79.8825 51.2607 78.2873 50.8642C76.065 50.3478 75.1521 49.5732 74.9031 47.1112C74.4789 44.852 75.4749 41.3203 73.1419 40.0017C70.1358 38.388 65.5713 39.8726 64.9073 35.2804C64.3541 31.8225 63.3582 28.3461 62.2609 25.0265C61.6892 23.2099 61.0713 21.421 60.2414 19.7059C59.43 18.0184 58.388 16.4232 57.2907 14.9109C56.1842 13.3156 55.0315 11.7388 53.7313 10.2818C52.4034 8.83411 51.1586 7.30341 49.7016 5.97556C47.7468 4.21432 44.0399 -0.0366462 41.3842 0.000238507C39.1988 0.0555655 37.3361 2.00124 35.6394 3.26454C34.3853 4.28809 33.205 5.4223 32.0155 6.5565C30.8997 7.74603 29.8301 8.99087 28.742 10.1988C26.4643 13.1312 24.1683 16.1004 22.5361 19.4385C21.4757 21.7622 20.7749 24.1413 20.0464 26.5941C19.2718 29.176 18.6356 31.9608 18.1561 34.6073C17.8979 36.0827 17.2893 37.2722 15.8231 37.7701C13.7391 38.5539 11.0834 38.2127 9.33141 39.6697C7.18288 41.6522 9.18385 46.5579 7.23819 48.6603C5.68903 50.1634 2.78435 49.564 0.995439 50.8089C-1.38362 52.4318 1.08767 55.1428 2.34175 56.7381C4.15832 59.0618 5.71669 61.5976 7.34884 64.0505C9.93076 67.868 11.6643 71.9715 13.6838 76.1579C14.5967 78.1496 15.3344 80.5103 17.2801 81.6998C19.1243 82.7602 21.3927 82.6311 23.4213 83.1291C24.7492 83.3965 25.9664 84.0051 26.492 85.296C27.1836 86.9558 26.9622 88.9476 26.9899 90.7365C26.9622 91.8154 27.0453 92.9035 27.7 93.7795C29.0831 95.5961 31.6374 96.0756 33.7306 96.8317C36.1281 97.6247 38.2029 99.2292 40.6557 99.8194H40.6741C43.8001 100.585 46.6771 98.7313 49.5357 97.7446C51.2877 97.053 53.4731 96.97 54.6165 95.3748C56.1012 93.0234 55.5755 89.879 56.1472 87.2786C56.4792 85.4989 57.3552 84.7151 58.9781 84.2448C61.182 83.4149 64.9904 84.1618 66.6318 82.2992C67.5631 81.2479 67.9596 79.6527 68.4298 78.2695C69.1675 76.0472 70.145 73.8526 71.1593 71.7409C72.2013 69.6385 73.3171 67.7021 74.6357 65.7748C76.1757 63.6724 77.7525 61.5331 79.3109 59.4675C80.1869 58.3518 81.1366 57.2268 81.8559 56.0004C82.28 55.2258 82.6581 54.4144 82.5751 53.5845ZM74.0363 57.3283C73.815 58.1489 73.2064 59.0342 72.7085 59.7626C71.0948 62.4091 69.3612 64.8804 67.7844 67.6006C66.8162 69.2143 65.894 70.8649 64.9719 72.5063C63.8838 74.4704 63.0632 77.0247 60.804 77.873C59.8265 78.2511 58.8398 78.2142 57.7794 78.1865C56.7559 78.1681 55.7138 78.2419 54.7087 78.4539C52.5602 78.9888 51.7211 80.2705 51.5736 82.419C51.3799 84.7797 51.6381 87.3524 50.9373 89.6761C50.6146 90.7458 50.0889 91.8062 49.2959 92.3502C48.4383 92.9588 47.4056 93.217 46.4281 93.6227H46.4097C42.4722 95.3471 40.9969 95.3379 37.1793 93.4107C35.999 92.8666 34.6712 92.59 33.6384 91.7785C32.0892 90.5429 31.6466 88.2837 31.6097 86.3288C31.5913 85.6003 31.5544 84.8719 31.536 84.1711C31.4899 82.0225 31.6651 79.542 29.5442 78.3894C26.7686 76.9232 22.6375 77.8914 20.1939 75.7521C18.6355 74.2767 17.9809 72.0821 17.1786 70.1457C16.192 67.8773 15.1684 65.6088 13.7944 63.5341C12.7985 61.7728 11.7566 60.0577 10.5947 58.4163C9.54349 56.8764 8.84269 55.6131 10.8345 54.5896C12.024 53.8703 13.4164 53.2248 13.7207 51.731C14.3477 49.6378 13.7852 46.9175 15.5372 45.2946C16.6253 44.2711 18.1929 44.1512 19.5577 43.6994C21.7892 43.0908 22.6283 42.1502 22.8957 39.7988C23.0986 38.0283 23.0433 36.1564 23.3752 34.3768C23.8547 32.0069 24.4726 29.7385 25.1365 27.4424C26.031 24.3718 27.3035 21.4579 29.0002 18.7561C30.0237 17.2069 31.2225 15.7776 32.329 14.2838C33.9335 12.08 35.9898 10.3556 38.1476 8.72346C39.8904 7.28495 41.4764 6.2983 43.588 7.72758C46.7416 10.0329 49.4711 12.9744 51.8594 16.0543C53.3348 17.9354 54.7825 19.8995 55.8706 22.0204C58.8398 27.5531 60.057 33.9249 60.1861 40.1676C60.4812 44.1235 62.5191 44.2711 65.8479 44.8889C69.4073 45.7833 69.0661 47.5815 69.2598 50.6337C69.7854 56.8303 74.7003 54.2945 74.0456 57.3283H74.0363Z" fill="#422813"/>
<path d="M57.7425 58.5822C55.8061 58.7666 53.842 59.8732 53.2242 61.8004C49.9322 76.9508 44.8052 68.9929 44.8513 79.0256V79.044C44.6116 80.6669 43.9754 82.5665 42.3616 83.2027C40.5543 83.7283 38.6178 82.5388 38.249 80.6669C37.3453 75.7613 39.9733 74.1383 34.2101 71.4458C27.7645 67.9048 31.6374 58.2964 24.1037 58.2226C22.5545 57.8999 19.198 59.0248 18.6448 57.2452C18.7462 55.2534 20.7011 53.695 21.8814 52.2196C24.906 48.3467 33.8136 49.4072 32.2737 44.815C30.0975 38.8028 32.4028 32.0621 36.875 27.7466C38.1476 25.9762 39.1988 23.9291 40.1117 21.965C40.416 21.3103 40.8401 20.2959 41.4579 20.0469C43.5696 20.0285 43.9661 23.6155 45.0634 25.0356C46.8708 28.097 49.0009 30.9372 50.5224 34.1646C54.5243 42.2976 46.8708 46.6961 53.4271 48.5957C56.4793 49.6192 59.5591 50.8457 61.4218 53.6305C66.4012 59.2185 62.6759 58.1488 57.7518 58.573L57.7425 58.5822Z" fill="#422813"/>
<path d="M82.5751 53.5845C82.3169 51.6665 79.8825 51.2607 78.2873 50.8642C76.065 50.3478 75.1521 49.5732 74.9031 47.1112C74.4789 44.852 75.4749 41.3203 73.1419 40.0017C70.1358 38.388 65.5713 39.8726 64.9073 35.2804C64.3541 31.8225 63.3582 28.3461 62.2609 25.0265C61.6892 23.2099 61.0713 21.421 60.2414 19.7059C59.43 18.0184 58.388 16.4232 57.2907 14.9109C56.1842 13.3156 55.0315 11.7388 53.7313 10.2818C52.4034 8.83411 51.1586 7.30341 49.7016 5.97556C47.7468 4.21432 44.0399 -0.0366462 41.3842 0.000238507C39.1988 0.0555655 37.3361 2.00124 35.6394 3.26454C34.3853 4.28809 33.205 5.4223 32.0155 6.5565C30.8997 7.74603 29.8301 8.99087 28.742 10.1988C26.4643 13.1312 24.1683 16.1004 22.5361 19.4385C21.4757 21.7622 20.7749 24.1413 20.0464 26.5941C19.2718 29.176 18.6356 31.9608 18.1561 34.6073C17.8979 36.0827 17.2893 37.2722 15.8231 37.7701C13.7391 38.5539 11.0834 38.2127 9.33141 39.6697C7.18288 41.6522 9.18385 46.5579 7.23819 48.6603C5.68903 50.1634 2.78435 49.564 0.995439 50.8089C-1.38362 52.4318 1.08767 55.1428 2.34175 56.7381C4.15832 59.0618 5.71669 61.5976 7.34884 64.0505C9.93076 67.868 11.6643 71.9715 13.6838 76.1579C14.5967 78.1496 15.3344 80.5103 17.2801 81.6998C19.1243 82.7602 21.3927 82.6311 23.4213 83.1291C24.7492 83.3965 25.9664 84.0051 26.492 85.296C27.1836 86.9558 26.9622 88.9476 26.9899 90.7365C26.9622 91.8154 27.0453 92.9035 27.7 93.7795C29.0831 95.5961 31.6374 96.0756 33.7306 96.8317C36.1281 97.6247 38.2029 99.2292 40.6557 99.8194H40.6741C43.8001 100.585 46.6771 98.7313 49.5357 97.7446C51.2877 97.053 53.4731 96.97 54.6165 95.3748C56.1012 93.0234 55.5755 89.879 56.1472 87.2786C56.4792 85.4989 57.3552 84.7151 58.9781 84.2448C61.182 83.4149 64.9904 84.1618 66.6318 82.2992C67.5631 81.2479 67.9596 79.6527 68.4298 78.2695C69.1675 76.0472 70.145 73.8526 71.1593 71.7409C72.2013 69.6385 73.3171 67.7021 74.6357 65.7748C76.1757 63.6724 77.7525 61.5331 79.3109 59.4675C80.1869 58.3518 81.1366 57.2268 81.8559 56.0004C82.28 55.2258 82.6581 54.4144 82.5751 53.5845ZM74.0363 57.3283C73.815 58.1489 73.2064 59.0342 72.7085 59.7626C71.0948 62.4091 69.3612 64.8804 67.7844 67.6006C66.8162 69.2143 65.894 70.8649 64.9719 72.5063C63.8838 74.4704 63.0632 77.0247 60.804 77.873C59.8265 78.2511 58.8398 78.2142 57.7794 78.1865C56.7559 78.1681 55.7138 78.2419 54.7087 78.4539C52.5602 78.9888 51.7211 80.2705 51.5736 82.419C51.3799 84.7797 51.6381 87.3524 50.9373 89.6761C50.6146 90.7458 50.0889 91.8062 49.2959 92.3502C48.4383 92.9588 47.4056 93.217 46.4281 93.6227H46.4097C42.4722 95.3471 40.9969 95.3379 37.1793 93.4107C35.999 92.8666 34.6712 92.59 33.6384 91.7785C32.0892 90.5429 31.6466 88.2837 31.6097 86.3288C31.5913 85.6003 31.5544 84.8719 31.536 84.1711C31.4899 82.0225 31.6651 79.542 29.5442 78.3894C26.7686 76.9232 22.6375 77.8914 20.1939 75.7521C18.6355 74.2767 17.9809 72.0821 17.1786 70.1457C16.192 67.8773 15.1684 65.6088 13.7944 63.5341C12.7985 61.7728 11.7566 60.0577 10.5947 58.4163C9.54349 56.8764 8.84269 55.6131 10.8345 54.5896C12.024 53.8703 13.4164 53.2248 13.7207 51.731C14.3477 49.6378 13.7852 46.9175 15.5372 45.2946C16.6253 44.2711 18.1929 44.1512 19.5577 43.6994C21.7892 43.0908 22.6283 42.1502 22.8957 39.7988C23.0986 38.0283 23.0433 36.1564 23.3752 34.3768C23.8547 32.0069 24.4726 29.7385 25.1365 27.4424C26.031 24.3718 27.3035 21.4579 29.0002 18.7561C30.0237 17.2069 31.2225 15.7776 32.329 14.2838C33.9335 12.08 35.9898 10.3556 38.1476 8.72346C39.8904 7.28495 41.4764 6.2983 43.588 7.72758C46.7416 10.0329 49.4711 12.9744 51.8594 16.0543C53.3348 17.9354 54.7825 19.8995 55.8706 22.0204C58.8398 27.5531 60.057 33.9249 60.1861 40.1676C60.4812 44.1235 62.5191 44.2711 65.8479 44.8889C69.4073 45.7833 69.0661 47.5815 69.2598 50.6337C69.7854 56.8303 74.7003 54.2945 74.0456 57.3283H74.0363Z" fill="#422813"/>
</svg>
