<svg width="32" height="32" viewBox="0 0 32 32" fill="none" xmlns="http://www.w3.org/2000/svg">
<path d="M20.52 11.373H7.73332C5.67145 11.373 4 13.0446 4 15.1064V22.2664C4 24.3283 5.67145 25.9998 7.73332 25.9998H20.52C22.5819 25.9998 24.2533 24.3283 24.2533 22.2664V15.1064C24.2533 13.0446 22.5819 11.373 20.52 11.373Z" stroke="#FEF8F4" stroke-width="1.5" stroke-linecap="round" stroke-linejoin="round"/>
<path d="M24.2533 20.6266C25.2434 20.6266 26.193 20.2333 26.8932 19.5332C27.5933 18.8331 27.9867 17.8835 27.9867 16.8933V9.73332C27.9867 8.74318 27.5933 7.79356 26.8932 7.09342C26.193 6.39329 25.2434 6 24.2533 6H11.4667C10.4765 6 9.5269 6.39329 8.82676 7.09342C8.12663 7.79356 7.73334 8.74318 7.73334 9.73332V11.3733" stroke="#FEF8F4" stroke-width="1.5" stroke-linecap="round" stroke-linejoin="round"/>
<path d="M14.1333 21.3602C15.606 21.3602 16.7999 20.1663 16.7999 18.6935C16.7999 17.2208 15.606 16.0269 14.1333 16.0269C12.6605 16.0269 11.4666 17.2208 11.4666 18.6935C11.4666 20.1663 12.6605 21.3602 14.1333 21.3602Z" stroke="#FEF8F4" stroke-width="1.5" stroke-linecap="round" stroke-linejoin="round"/>
</svg>
